<svg xmlns="http://www.w3.org/2000/svg" viewBox="0 0 64 64">
  <defs>
    <linearGradient id="g" x1="0" y1="0" x2="1" y2="1">
      <stop offset="0" stop-color="#8a6cff"/>
      <stop offset="1" stop-color="#ef7aa0"/>
    </linearGradient>
  </defs>
  <circle cx="32" cy="32" r="32" fill="url(#g)"/>
  <ellipse cx="32" cy="34" rx="18" ry="19" fill="#ffe0cf"/>
  <path d="M13 36 Q11 13 32 12 Q53 13 51 36 Q49 27 32 25 Q15 27 13 36Z" fill="#5b3a2e"/>
  <path d="M15 31 Q20 17 32 17 Q44 17 49 31 Q44 25 38 27 Q34 21 32 27 Q28 21 26 27 Q20 25 15 31Z" fill="#6b4636"/>
  <ellipse cx="25" cy="37" rx="2.2" ry="2.9" fill="#3a2a22"/>
  <ellipse cx="39" cy="37" rx="2.2" ry="2.9" fill="#3a2a22"/>
  <circle cx="22" cy="42" r="2.6" fill="#ff9bb3" opacity="0.7"/>
  <circle cx="42" cy="42" r="2.6" fill="#ff9bb3" opacity="0.7"/>
  <path d="M28 45 Q32 48 36 45" stroke="#c46a5a" stroke-width="1.6" fill="none" stroke-linecap="round"/>
</svg>
